# xmcd CD database file
#
# Track frame offsets:
#	150
#	14520
#	40976
#	51979
#	64813
#	77575
#	95274
#	113831
#	140730
#	154567
#	167763
#
# Disc length: 2336 seconds
#
# Revision: 0
# Processed by: cddbd v1.5.1PL0 Copyright (c) Steve Scherf et al.
# Submitted via: CDex 1.51
#
DISCID=8d091e0b
DTITLE=SAKEROCK - YUTA
DYEAR=1900
DGENRE=Instrumental Rock
TTITLE0=弟義父さん
TTITLE1=チャイニーズスケーター
TTITLE2=モー
TTITLE3=ベラマッチャ
TTITLE4=裸で駆けてく
TTITLE5=新巻鮭
TTITLE6=七七日
TTITLE7=みんなのユタ
TTITLE8=OUTRO
TTITLE9=モズレア
TTITLE10=京都
EXTD=
EXTT0=
EXTT1=
EXTT2=
EXTT3=
EXTT4=
EXTT5=
EXTT6=
EXTT7=
EXTT8=
EXTT9=
EXTT10=
PLAYORDER=
